<svg xmlns="http://www.w3.org/2000/svg" version="1.1" xmlns:xlink="http://www.w3.org/1999/xlink" xmlns:svgjs="http://svgjs.dev/svgjs" width="1440" height="560" preserveAspectRatio="none" viewBox="0 0 1440 560"><g mask="url(&quot;#SvgjsMask5997&quot;)" fill="none"><rect width="1440" height="560" x="0" y="0" fill="url(&quot;#SvgjsLinearGradient5998&quot;)"></rect><use xlink:href="#SvgjsG6003" transform="translate(0, 0)" fill="rgba(64, 110, 148, 1)"></use><use xlink:href="#SvgjsG6003" transform="translate(1081, 0)" fill="rgba(64, 110, 148, 1)"></use></g><defs><mask id="SvgjsMask5997"><rect width="1440" height="560" fill="#ffffff"></rect></mask><linearGradient x1="84.72%" y1="139.29%" x2="15.28%" y2="-39.29%" gradientUnits="userSpaceOnUse" id="SvgjsLinearGradient5998"><stop stop-color="rgba(0, 60, 158, 1)" offset="0.09"></stop><stop stop-color="rgba(230, 230, 230, 1)" offset="0.78"></stop></linearGradient><g id="SvgjsG5999"><path d="M5.82 12.15S5.39 10.34 2.89 9.38C0.6 8.5-0.84 8.71-0.84 8.71L2.7-0.53s1.44-0.21 3.74 0.66C8.95 1.07 9.37 2.91 9.37 2.91L5.82 12.15z m1.01 0.39s1.53-1.05 4.03-0.1c2.29 0.88 3.22 2 3.22 2L17.63 5.2s-0.93-1.12-3.22-2.01c-2.49-0.97-4.03 0.11-4.03 0.11l-3.55 9.24z"></path><path d="M5.24 15.22S4.57 12.48 2.07 11.52c-2.29-0.88-3.73-0.67-3.73-0.67l0.42-1.11s1.44-0.21 3.74 0.66c2.5 0.94 3.16 3.72 3.16 3.72L5.24 15.22z m0 0s2.34-1.59 4.83-0.63c2.29 0.88 3.22 2 3.23 2l0.42-1.11s-0.93-1.12-3.21-2.01c-2.49-0.98-4.84 0.65-4.85 0.65l-0.42 1.1z"></path></g><g id="SvgjsG6000"><path d="M13.35 16.33L10.89 10.79a6.3 6.3 0 1 0-6.12 0.9 6.26 6.26 0 0 0 3.37 0.32l2.47 5.54L13.35 16.33zM3.38 4.42a3.91 3.91 0 0 1 5.04-2.25 3.91 3.91 0 0 1 2.25 5.04 3.9 3.9 0 0 1-7.29-2.79z"></path></g><g id="SvgjsG6001"><path d="M17.14 6.01L7.62 8.99 2.54 0.41z m-3.18 8.28L10.91 9.12l5.73-1.8zM2.02 1.7l3.05 5.18L-0.66 8.68z"></path><path d="M9.87 9.43L7.14 10.28 5.68 7.82-1.11 9.93l14.61 5.61z"></path></g><g id="SvgjsG6002"><path d="M10.14 2.42C6.24 0.92 2.15 2.09 1.02 5.04c-0.55 1.44-0.3 3.04 0.57 4.47l-1.22 3.2 4.34-0.26c0.42 0.24 0.87 0.45 1.34 0.63 3.91 1.5 7.99 0.33 9.12-2.61 1.13-2.94-1.12-6.55-5.03-8.05zM4.69 7.73a1.07 1.07 0 1 1 0.76-1.99 1.07 1.07 0 0 1-0.76 1.99z m2.97 1.14a1.07 1.07 0 1 1 0.77-1.99 1.07 1.07 0 0 1-0.77 1.99z m2.94 1.13c-0.55-0.21-0.82-0.83-0.62-1.38s0.83-0.83 1.38-0.62 0.82 0.83 0.61 1.38a1.07 1.07 0 0 1-1.37 0.62z"></path></g><g id="SvgjsG6003"><use xlink:href="#SvgjsG5999" transform="translate(0, 0) scale(2.3)" fill="rgba(64, 110, 148, 1)"></use><use xlink:href="#SvgjsG6000" transform="translate(0, 108.1) scale(2.3)" fill="rgba(64, 110, 148, 1)"></use><use xlink:href="#SvgjsG5999" transform="translate(0, 216.2) scale(2.3)" fill="rgba(64, 110, 148, 1)"></use><use xlink:href="#SvgjsG6001" transform="translate(0, 324.29999999999995) scale(2.3)" fill="rgba(64, 110, 148, 1)"></use><use xlink:href="#SvgjsG6001" transform="translate(0, 432.4) scale(2.3)" fill="rgba(64, 110, 148, 1)"></use><use xlink:href="#SvgjsG6002" transform="translate(0, 540.5) scale(2.3)" fill="rgba(64, 110, 148, 1)"></use><use xlink:href="#SvgjsG6000" transform="translate(108.1, 0) scale(2.3)" fill="rgba(64, 110, 148, 1)"></use><use xlink:href="#SvgjsG6001" transform="translate(108.1, 108.1) scale(2.3)" fill="rgba(64, 110, 148, 1)"></use><use xlink:href="#SvgjsG5999" transform="translate(108.1, 216.2) scale(2.3)" fill="rgba(64, 110, 148, 1)"></use><use xlink:href="#SvgjsG5999" transform="translate(108.1, 324.29999999999995) scale(2.3)" fill="rgba(64, 110, 148, 1)"></use><use xlink:href="#SvgjsG6002" transform="translate(108.1, 432.4) scale(2.3)" fill="rgba(64, 110, 148, 1)"></use><use xlink:href="#SvgjsG6000" transform="translate(108.1, 540.5) scale(2.3)" fill="rgba(64, 110, 148, 1)"></use><use xlink:href="#SvgjsG5999" transform="translate(216.2, 0) scale(2.3)" fill="rgba(64, 110, 148, 1)"></use><use xlink:href="#SvgjsG5999" transform="translate(216.2, 108.1) scale(2.3)" fill="rgba(64, 110, 148, 1)"></use><use xlink:href="#SvgjsG6002" transform="translate(216.2, 216.2) scale(2.3)" fill="rgba(64, 110, 148, 1)"></use><use xlink:href="#SvgjsG6001" transform="translate(216.2, 324.29999999999995) scale(2.3)" fill="rgba(64, 110, 148, 1)"></use><use xlink:href="#SvgjsG5999" transform="translate(216.2, 432.4) scale(2.3)" fill="rgba(64, 110, 148, 1)"></use><use xlink:href="#SvgjsG6001" transform="translate(216.2, 540.5) scale(2.3)" fill="rgba(64, 110, 148, 1)"></use><use xlink:href="#SvgjsG5999" transform="translate(324.29999999999995, 0) scale(2.3)" fill="rgba(64, 110, 148, 1)"></use><use xlink:href="#SvgjsG5999" transform="translate(324.29999999999995, 108.1) scale(2.3)" fill="rgba(64, 110, 148, 1)"></use><use xlink:href="#SvgjsG6002" transform="translate(324.29999999999995, 216.2) scale(2.3)" fill="rgba(64, 110, 148, 1)"></use><use xlink:href="#SvgjsG5999" transform="translate(324.29999999999995, 324.29999999999995) scale(2.3)" fill="rgba(64, 110, 148, 1)"></use><use xlink:href="#SvgjsG5999" transform="translate(324.29999999999995, 432.4) scale(2.3)" fill="rgba(64, 110, 148, 1)"></use><use xlink:href="#SvgjsG6002" transform="translate(324.29999999999995, 540.5) scale(2.3)" fill="rgba(64, 110, 148, 1)"></use><use xlink:href="#SvgjsG6002" transform="translate(432.4, 0) scale(2.3)" fill="rgba(64, 110, 148, 1)"></use><use xlink:href="#SvgjsG6002" transform="translate(432.4, 108.1) scale(2.3)" fill="rgba(64, 110, 148, 1)"></use><use xlink:href="#SvgjsG5999" transform="translate(432.4, 216.2) scale(2.3)" fill="rgba(64, 110, 148, 1)"></use><use xlink:href="#SvgjsG6000" transform="translate(432.4, 324.29999999999995) scale(2.3)" fill="rgba(64, 110, 148, 1)"></use><use xlink:href="#SvgjsG6002" transform="translate(432.4, 432.4) scale(2.3)" fill="rgba(64, 110, 148, 1)"></use><use xlink:href="#SvgjsG6001" transform="translate(432.4, 540.5) scale(2.3)" fill="rgba(64, 110, 148, 1)"></use><use xlink:href="#SvgjsG6000" transform="translate(540.5, 0) scale(2.3)" fill="rgba(64, 110, 148, 1)"></use><use xlink:href="#SvgjsG6001" transform="translate(540.5, 108.1) scale(2.3)" fill="rgba(64, 110, 148, 1)"></use><use xlink:href="#SvgjsG6001" transform="translate(540.5, 216.2) scale(2.3)" fill="rgba(64, 110, 148, 1)"></use><use xlink:href="#SvgjsG6000" transform="translate(540.5, 324.29999999999995) scale(2.3)" fill="rgba(64, 110, 148, 1)"></use><use xlink:href="#SvgjsG6002" transform="translate(540.5, 432.4) scale(2.3)" fill="rgba(64, 110, 148, 1)"></use><use xlink:href="#SvgjsG5999" transform="translate(540.5, 540.5) scale(2.3)" fill="rgba(64, 110, 148, 1)"></use><use xlink:href="#SvgjsG6001" transform="translate(648.5999999999999, 0) scale(2.3)" fill="rgba(64, 110, 148, 1)"></use><use xlink:href="#SvgjsG5999" transform="translate(648.5999999999999, 108.1) scale(2.3)" fill="rgba(64, 110, 148, 1)"></use><use xlink:href="#SvgjsG6000" transform="translate(648.5999999999999, 216.2) scale(2.3)" fill="rgba(64, 110, 148, 1)"></use><use xlink:href="#SvgjsG5999" transform="translate(648.5999999999999, 324.29999999999995) scale(2.3)" fill="rgba(64, 110, 148, 1)"></use><use xlink:href="#SvgjsG6000" transform="translate(648.5999999999999, 432.4) scale(2.3)" fill="rgba(64, 110, 148, 1)"></use><use xlink:href="#SvgjsG6000" transform="translate(648.5999999999999, 540.5) scale(2.3)" fill="rgba(64, 110, 148, 1)"></use><use xlink:href="#SvgjsG6002" transform="translate(756.6999999999999, 0) scale(2.3)" fill="rgba(64, 110, 148, 1)"></use><use xlink:href="#SvgjsG5999" transform="translate(756.6999999999999, 108.1) scale(2.3)" fill="rgba(64, 110, 148, 1)"></use><use xlink:href="#SvgjsG5999" transform="translate(756.6999999999999, 216.2) scale(2.3)" fill="rgba(64, 110, 148, 1)"></use><use xlink:href="#SvgjsG6000" transform="translate(756.6999999999999, 324.29999999999995) scale(2.3)" fill="rgba(64, 110, 148, 1)"></use><use xlink:href="#SvgjsG5999" transform="translate(756.6999999999999, 432.4) scale(2.3)" fill="rgba(64, 110, 148, 1)"></use><use xlink:href="#SvgjsG6000" transform="translate(756.6999999999999, 540.5) scale(2.3)" fill="rgba(64, 110, 148, 1)"></use><use xlink:href="#SvgjsG5999" transform="translate(864.8, 0) scale(2.3)" fill="rgba(64, 110, 148, 1)"></use><use xlink:href="#SvgjsG6001" transform="translate(864.8, 108.1) scale(2.3)" fill="rgba(64, 110, 148, 1)"></use><use xlink:href="#SvgjsG5999" transform="translate(864.8, 216.2) scale(2.3)" fill="rgba(64, 110, 148, 1)"></use><use xlink:href="#SvgjsG5999" transform="translate(864.8, 324.29999999999995) scale(2.3)" fill="rgba(64, 110, 148, 1)"></use><use xlink:href="#SvgjsG6002" transform="translate(864.8, 432.4) scale(2.3)" fill="rgba(64, 110, 148, 1)"></use><use xlink:href="#SvgjsG5999" transform="translate(864.8, 540.5) scale(2.3)" fill="rgba(64, 110, 148, 1)"></use><use xlink:href="#SvgjsG6002" transform="translate(972.9, 0) scale(2.3)" fill="rgba(64, 110, 148, 1)"></use><use xlink:href="#SvgjsG5999" transform="translate(972.9, 108.1) scale(2.3)" fill="rgba(64, 110, 148, 1)"></use><use xlink:href="#SvgjsG6002" transform="translate(972.9, 216.2) scale(2.3)" fill="rgba(64, 110, 148, 1)"></use><use xlink:href="#SvgjsG6000" transform="translate(972.9, 324.29999999999995) scale(2.3)" fill="rgba(64, 110, 148, 1)"></use><use xlink:href="#SvgjsG6002" transform="translate(972.9, 432.4) scale(2.3)" fill="rgba(64, 110, 148, 1)"></use><use xlink:href="#SvgjsG6001" transform="translate(972.9, 540.5) scale(2.3)" fill="rgba(64, 110, 148, 1)"></use></g></defs></svg>